<svg width="111" height="111" viewBox="0 0 111 111" fill="none" xmlns="http://www.w3.org/2000/svg">
<circle cx="55.5" cy="55.5" r="55.5" fill="#270069"/>
<path d="M55.0002 46.6252C53.146 46.6252 51.3335 47.175 49.7917 48.2052C48.25 49.2353 47.0484 50.6995 46.3388 52.4126C45.6293 54.1256 45.4436 56.0106 45.8053 57.8292C46.1671 59.6478 47.06 61.3182 48.3711 62.6293C49.6822 63.9405 51.3527 64.8333 53.1712 65.1951C54.9898 65.5568 56.8748 65.3712 58.5879 64.6616C60.3009 63.952 61.7651 62.7504 62.7952 61.2087C63.8254 59.667 64.3752 57.8544 64.3752 56.0002C64.3726 53.5146 63.3841 51.1315 61.6265 49.3739C59.8689 47.6163 57.4858 46.6278 55.0002 46.6252ZM55.0002 62.2502C53.7641 62.2502 52.5557 61.8837 51.5279 61.1969C50.5001 60.5101 49.699 59.534 49.226 58.392C48.7529 57.2499 48.6291 55.9933 48.8703 54.7809C49.1115 53.5685 49.7067 52.4549 50.5808 51.5808C51.4549 50.7067 52.5685 50.1115 53.7809 49.8703C54.9933 49.6291 56.2499 49.7529 57.392 50.226C58.534 50.699 59.5101 51.5001 60.1969 52.5279C60.8837 53.5557 61.2502 54.7641 61.2502 56.0002C61.2502 57.6578 60.5917 59.2475 59.4196 60.4196C58.2475 61.5917 56.6578 62.2502 55.0002 62.2502ZM72.1877 56.4221C72.1955 56.1408 72.1955 55.8596 72.1877 55.5783L75.1018 51.9377C75.2546 51.7466 75.3603 51.5222 75.4105 51.2827C75.4607 51.0432 75.454 50.7952 75.3908 50.5588C74.9131 48.7631 74.1985 47.039 73.2658 45.4319C73.1437 45.2215 72.9742 45.0426 72.7707 44.9094C72.5673 44.7761 72.3356 44.6922 72.094 44.6643L67.4611 44.1486C67.2684 43.9455 67.0731 43.7502 66.8752 43.5627L66.3283 38.9182C66.3002 38.6764 66.216 38.4445 66.0824 38.2411C65.9488 38.0376 65.7695 37.8682 65.5588 37.7463C63.9511 36.8153 62.2271 36.1015 60.4319 35.6233C60.1953 35.5604 59.9472 35.5539 59.7077 35.6045C59.4682 35.655 59.2439 35.7611 59.0529 35.9143L55.4221 38.8127C55.1408 38.8127 54.8596 38.8127 54.5783 38.8127L50.9377 35.9045C50.7466 35.7517 50.5222 35.6459 50.2827 35.5957C50.0432 35.5455 49.7952 35.5523 49.5588 35.6154C47.7634 36.094 46.0394 36.8086 44.4319 37.7404C44.2215 37.8626 44.0426 38.0321 43.9094 38.2355C43.7761 38.439 43.6922 38.6707 43.6643 38.9123L43.1486 43.5529C42.9455 43.747 42.7502 43.9423 42.5627 44.1389L37.9182 44.6721C37.6764 44.7002 37.4445 44.7844 37.2411 44.918C37.0376 45.0516 36.8682 45.2309 36.7463 45.4416C35.8153 47.0494 35.1015 48.7733 34.6233 50.5686C34.5604 50.8051 34.5539 51.0532 34.6045 51.2927C34.655 51.5322 34.7611 51.7565 34.9143 51.9475L37.8127 55.5783C37.8127 55.8596 37.8127 56.1408 37.8127 56.4221L34.9045 60.0627C34.7517 60.2539 34.6459 60.4782 34.5957 60.7177C34.5455 60.9572 34.5523 61.2052 34.6154 61.4416C35.0932 63.2373 35.8078 64.9614 36.7404 66.5686C36.8626 66.7789 37.0321 66.9578 37.2355 67.091C37.439 67.2243 37.6707 67.3082 37.9123 67.3361L42.5451 67.8518C42.7391 68.0549 42.9345 68.2502 43.1311 68.4377L43.6721 73.0822C43.7002 73.324 43.7844 73.5559 43.918 73.7593C44.0516 73.9628 44.2309 74.1322 44.4416 74.2541C46.0494 75.1851 47.7733 75.899 49.5686 76.3772C49.8051 76.4401 50.0532 76.4465 50.2927 76.3959C50.5322 76.3454 50.7565 76.2393 50.9475 76.0861L54.5783 73.1877C54.8596 73.1955 55.1408 73.1955 55.4221 73.1877L59.0627 76.1018C59.2539 76.2546 59.4782 76.3603 59.7177 76.4105C59.9572 76.4607 60.2052 76.454 60.4416 76.3908C62.2373 75.9131 63.9614 75.1985 65.5686 74.2658C65.7789 74.1437 65.9578 73.9742 66.091 73.7707C66.2243 73.5673 66.3082 73.3356 66.3361 73.094L66.8518 68.4611C67.0549 68.2684 67.2502 68.0731 67.4377 67.8752L72.0822 67.3283C72.324 67.3002 72.5559 67.216 72.7593 67.0824C72.9628 66.9488 73.1322 66.7695 73.2541 66.5588C74.1851 64.9511 74.899 63.2271 75.3772 61.4319C75.4401 61.1953 75.4465 60.9472 75.3959 60.7077C75.3454 60.4682 75.2393 60.2439 75.0861 60.0529L72.1877 56.4221ZM69.0432 55.1526C69.0764 55.7172 69.0764 56.2832 69.0432 56.8479C69.0199 57.2344 69.141 57.6159 69.383 57.9182L72.1545 61.3811C71.8365 62.3917 71.4293 63.3722 70.9377 64.3108L66.5236 64.8108C66.1392 64.8534 65.7843 65.0371 65.5276 65.3264C65.1516 65.7492 64.7512 66.1496 64.3283 66.5256C64.0391 66.7824 63.8554 67.1373 63.8127 67.5217L63.3225 71.9319C62.384 72.4237 61.4036 72.8309 60.3928 73.1486L56.9279 70.3772C56.6507 70.1556 56.3063 70.0351 55.9514 70.0354H55.8576C55.293 70.0686 54.7269 70.0686 54.1623 70.0354C53.7758 70.0121 53.3943 70.1332 53.092 70.3752L49.6194 73.1486C48.6087 72.8306 47.6283 72.4234 46.6897 71.9319L46.1897 67.5236C46.147 67.1392 45.9633 66.7843 45.674 66.5276C45.2512 66.1516 44.8508 65.7512 44.4748 65.3283C44.218 65.0391 43.8631 64.8554 43.4787 64.8127L39.0686 64.3205C38.5768 63.382 38.1695 62.4016 37.8518 61.3908L40.6233 57.926C40.8653 57.6237 40.9864 57.2422 40.9631 56.8557C40.9299 56.2911 40.9299 55.725 40.9631 55.1604C40.9864 54.7738 40.8653 54.3924 40.6233 54.0901L37.8518 50.6194C38.1698 49.6087 38.577 48.6283 39.0686 47.6897L43.4768 47.1897C43.8612 47.147 44.2161 46.9633 44.4729 46.674C44.8488 46.2512 45.2493 45.8508 45.6721 45.4748C45.9625 45.2179 46.1469 44.8622 46.1897 44.4768L46.6799 40.0686C47.6184 39.5768 48.5988 39.1695 49.6096 38.8518L53.0744 41.6233C53.3768 41.8653 53.7582 41.9864 54.1447 41.9631C54.7094 41.9299 55.2754 41.9299 55.8401 41.9631C56.2266 41.9864 56.608 41.8653 56.9104 41.6233L60.3811 38.8518C61.3917 39.1698 62.3722 39.577 63.3108 40.0686L63.8108 44.4768C63.8534 44.8612 64.0371 45.2161 64.3264 45.4729C64.7492 45.8488 65.1496 46.2493 65.5256 46.6721C65.7824 46.9613 66.1373 47.145 66.5217 47.1877L70.9319 47.6779C71.4237 48.6164 71.8309 49.5969 72.1486 50.6076L69.3772 54.0725C69.1328 54.3773 69.0116 54.7627 69.0373 55.1526H69.0432Z" fill="white"/>
</svg>
