<svg width="111" height="111" viewBox="0 0 111 111" fill="none" xmlns="http://www.w3.org/2000/svg">
<circle cx="55.5" cy="55.5" r="55.5" fill="#270069"/>
<path d="M39.375 41.9375V70.0625C39.375 70.4769 39.2104 70.8743 38.9174 71.1674C38.6243 71.4604 38.2269 71.625 37.8125 71.625C37.3981 71.625 37.0007 71.4604 36.7076 71.1674C36.4146 70.8743 36.25 70.4769 36.25 70.0625V41.9375C36.25 41.5231 36.4146 41.1257 36.7076 40.8326C37.0007 40.5396 37.3981 40.375 37.8125 40.375C38.2269 40.375 38.6243 40.5396 38.9174 40.8326C39.2104 41.1257 39.375 41.5231 39.375 41.9375ZM55.7813 52.582L51.875 53.8516V49.75C51.875 49.3356 51.7104 48.9382 51.4174 48.6451C51.1243 48.3521 50.7269 48.1875 50.3125 48.1875C49.8981 48.1875 49.5007 48.3521 49.2076 48.6451C48.9146 48.9382 48.75 49.3356 48.75 49.75V53.8516L44.8438 52.582C44.4496 52.4525 44.0201 52.4849 43.6497 52.6721C43.2794 52.8593 42.9986 53.1859 42.8691 53.5801C42.7396 53.9743 42.772 54.4038 42.9592 54.7741C43.1464 55.1444 43.473 55.4252 43.8672 55.5547L47.7734 56.8223L45.3633 60.1426C45.2359 60.3081 45.143 60.4974 45.0901 60.6994C45.0371 60.9014 45.0252 61.112 45.055 61.3187C45.0849 61.5254 45.1558 61.724 45.2637 61.9028C45.3716 62.0816 45.5142 62.237 45.6832 62.3597C45.8522 62.4825 46.044 62.5701 46.2474 62.6174C46.4508 62.6647 46.6616 62.6708 46.8674 62.6353C47.0732 62.5997 47.2698 62.5233 47.4455 62.4105C47.6213 62.2977 47.7726 62.1508 47.8906 61.9785L50.3008 58.6582L52.7109 61.9785C52.8289 62.1508 52.9803 62.2977 53.156 62.4105C53.3318 62.5233 53.5284 62.5997 53.7342 62.6353C53.9399 62.6708 54.1508 62.6647 54.3542 62.6174C54.5576 62.5701 54.7494 62.4825 54.9184 62.3597C55.0873 62.237 55.23 62.0816 55.3379 61.9028C55.4458 61.724 55.5167 61.5254 55.5465 61.3187C55.5764 61.112 55.5644 60.9014 55.5115 60.6994C55.4586 60.4974 55.3657 60.3081 55.2383 60.1426L52.8281 56.8223L56.7344 55.5547C57.1112 55.4145 57.4194 55.1346 57.5951 54.773C57.7708 54.4114 57.8003 53.996 57.6775 53.6131C57.5548 53.2303 57.2892 52.9096 56.9361 52.7175C56.5829 52.5255 56.1693 52.477 55.7813 52.582ZM76.4844 53.5859C76.3563 53.1953 76.0795 52.8709 75.7139 52.683C75.3483 52.4951 74.9234 52.4588 74.5313 52.582L70.625 53.8516V49.75C70.625 49.3356 70.4604 48.9382 70.1674 48.6451C69.8743 48.3521 69.4769 48.1875 69.0625 48.1875C68.6481 48.1875 68.2507 48.3521 67.9576 48.6451C67.6646 48.9382 67.5 49.3356 67.5 49.75V53.8516L63.5938 52.584C63.3986 52.5205 63.1928 52.4961 62.9882 52.5121C62.7835 52.5282 62.5841 52.5844 62.4012 52.6775C62.2183 52.7706 62.0555 52.8989 61.9222 53.0549C61.7888 53.211 61.6875 53.3917 61.624 53.5869C61.5605 53.7821 61.5361 53.9879 61.5522 54.1925C61.5682 54.3971 61.6244 54.5966 61.7175 54.7795C61.8107 54.9624 61.9389 55.1252 62.095 55.2585C62.251 55.3919 62.4318 55.4932 62.627 55.5566L66.5332 56.8242L64.1231 60.1445C63.9957 60.31 63.9028 60.4994 63.8498 60.7014C63.7969 60.9034 63.785 61.114 63.8148 61.3207C63.8446 61.5274 63.9156 61.726 64.0235 61.9048C64.1314 62.0836 64.274 62.2389 64.443 62.3617C64.6119 62.4844 64.8038 62.572 65.0072 62.6194C65.2106 62.6667 65.4214 62.6728 65.6272 62.6372C65.833 62.6017 66.0295 62.5253 66.2053 62.4125C66.381 62.2997 66.5324 62.1528 66.6504 61.9805L69.0606 58.6602L71.4707 61.9805C71.5887 62.1528 71.7401 62.2997 71.9158 62.4125C72.0916 62.5253 72.2881 62.6017 72.4939 62.6372C72.6997 62.6728 72.9105 62.6667 73.1139 62.6194C73.3173 62.572 73.5092 62.4844 73.6781 62.3617C73.8471 62.2389 73.9897 62.0836 74.0976 61.9048C74.2055 61.726 74.2765 61.5274 74.3063 61.3207C74.3361 61.114 74.3242 60.9034 74.2713 60.7014C74.2183 60.4994 74.1254 60.31 73.9981 60.1445L71.5879 56.8242L75.4941 55.5566C75.8863 55.426 76.2107 55.1452 76.3963 54.7758C76.5819 54.4065 76.6136 53.9786 76.4844 53.5859Z" fill="white"/>
</svg>
